<svg version="1.1" xmlns="http://www.w3.org/2000/svg" xmlns:xlink="http://www.w3.org/1999/xlink" width="128" height="128" viewBox="0,0,128,128"><g transform="translate(-176,-116)"><g data-paper-data="{&quot;isPaintingLayer&quot;:true}" fill-rule="nonzero" stroke-linecap="butt" stroke-linejoin="miter" stroke-miterlimit="10" stroke-dasharray="" stroke-dashoffset="0" style="mix-blend-mode: normal"><path d="M192,242c-7.73199,0 -14,0 -14,0v-124c0,0 6.26801,0 14,0h96c7.73199,0 14,0 14,0v124c0,0 -6.26801,0 -14,0z" fill="#363d52" stroke="#212532" stroke-width="4"/><g stroke="none" stroke-width="1"><g><g><g><path d="M244.34153,162.25963c0.00093,-0.13071 0.00147,-0.26352 0.00163,-0.39844c0.05829,0.12823 0.0615,0.25391 0.00963,0.37704c-0.00276,0.00679 -0.00652,0.01393 -0.01126,0.0214M245.66338,144.17994c-1.84446,-1.11125 -4.05336,-1.81224 -6.62669,-2.10297c-1.84097,-0.20623 -4.27469,-0.20799 -7.30115,-0.00527c-2.59725,0.1609 -4.83457,0.37874 -6.71194,0.65352c-2.42208,0.33851 -4.63384,0.79605 -6.6353,1.37262c1.09603,0.30474 2.2726,0.82696 3.52972,1.56669c0.75577,0.44098 1.84267,1.15842 3.26069,2.15231c0.33039,0.22843 0.5063,0.45406 0.52772,0.67688c0.04815,0.28732 -0.14017,0.59595 -0.56498,0.92589c-3.7235,2.92811 -7.10417,6.22569 -10.14199,9.89276l6.1585,0.52222c2.01321,0.19176 3.52462,0.308 4.53424,0.34872c1.13335,0.05257 3.65832,0.04558 7.57489,-0.02097c3.10591,-0.05725 5.61422,0.02507 7.52493,0.24697c0.72725,0.08642 1.35726,0.21467 1.89003,0.38475l-0.09382,1.43853c-2.0086,-0.43519 -4.39574,-0.67374 -7.16145,-0.71565c-1.81204,0.00232 -4.54649,0.02871 -8.20333,0.07917c-2.24748,-0.02638 -5.54303,-0.25101 -9.88665,-0.67389l-3.00444,-0.29216c-0.66515,-0.06968 -1.04304,-0.29018 -1.13366,-0.66148c-0.07414,-0.30379 0.07721,-0.67391 0.45405,-1.11034c3.08431,-3.65662 6.47238,-7.05889 10.1642,-10.2068c-2.42806,-2.07158 -5.1957,-3.37401 -8.30293,-3.90727c-0.50042,-0.06989 -0.7812,-0.25261 -0.84235,-0.54817c-0.04193,-0.21679 0.04263,-0.41049 0.25366,-0.58109c0.16253,-0.14427 0.36816,-0.24696 0.6169,-0.30805c6.28532,-1.70383 12.66512,-2.61542 19.13941,-2.73477c2.38274,-0.04958 4.38972,0.07166 6.02094,0.3637c2.07775,0.3449 3.86896,0.99991 5.37363,1.96501c-0.14077,0.41208 -0.27839,0.83845 -0.41286,1.27911M262.28319,145.84015c-0.00597,-0.05821 -0.02108,-0.12009 -0.04531,-0.18565c0.00323,-0.06643 0.0035,-0.13284 0.00081,-0.19922l0.0615,-0.01808c-0.00101,0.10506 -0.00329,0.20824 -0.00685,0.30953c0.00059,0.03794 -0.00279,0.06908 -0.01015,0.09343M263.62351,145.12036l0.04612,-0.01357c-0.00125,0.16053 -0.00654,0.31886 -0.0159,0.47499c-0.00391,-0.15703 -0.01399,-0.31084 -0.03023,-0.46142M272.79957,144.77319c-1.59459,0.08308 -3.69947,0.46095 -6.31464,1.13361c-0.6061,0.16346 -1.11896,0.29018 -1.53857,0.38015c0.01122,-0.48854 0.01,-0.98864 -0.00365,-1.5003c1.77773,-0.43216 3.13217,-0.73403 4.06332,-0.90562c1.62716,-0.30972 3.0928,-0.49356 4.39692,-0.55151c4.73875,-0.16365 9.7246,1.27024 14.95753,4.30167c2.84939,1.68237 4.98357,3.47258 6.40255,5.37063c1.11366,1.45724 1.97813,3.1988 2.59341,5.22468c0.56659,1.87138 0.89991,3.88975 0.99995,6.05511c0.14881,3.67048 -0.3977,7.82283 -1.63953,12.45704c-0.82387,3.01593 -1.96153,6.29901 -3.41299,9.84924c-0.98039,2.37459 -2.4015,5.55411 -4.2633,9.53857c-0.12609,0.33857 -0.2845,0.49971 -0.47522,0.48345c-0.09023,-0.00964 -0.15659,-0.05645 -0.19906,-0.14044c-0.15649,0.03397 -0.28782,-0.05403 -0.39399,-0.26399c-0.16639,-0.27666 -0.24777,-0.6326 -0.24413,-1.0678c-0.00642,-0.25136 0.02358,-0.64608 0.08999,-1.18416c0.279,-2.45773 0.17244,-4.96486 -0.31969,-7.52139c-0.46869,-2.37048 -1.24387,-4.66892 -2.32553,-6.8953c-1.74689,-3.64668 -4.49589,-7.34835 -8.24701,-11.105c-2.27926,-2.27211 -4.39697,-3.99481 -6.35312,-5.16809c-2.29617,-1.36185 -4.56666,-2.13518 -6.81148,-2.31996c0.07651,-0.44081 0.14677,-0.8956 0.21078,-1.36439c2.18337,0.09409 4.4179,0.78754 6.70356,2.08036c1.81521,1.0459 3.86546,2.64976 6.15076,4.81157c4.4324,4.20749 7.63856,8.43193 9.61848,12.67334c1.20853,2.61114 2.02071,5.30871 2.43652,8.0927c0.32701,2.19508 0.38157,4.33161 0.16369,6.40959c0.08657,-0.23047 0.17825,-0.46244 0.27506,-0.69592c2.09311,-5.01722 3.23748,-7.7777 3.43312,-8.28143c1.24886,-3.16505 2.20315,-5.98418 2.86286,-8.45741c1.77692,-6.67282 1.97338,-12.50699 0.58938,-17.50249c-0.4844,-1.71466 -1.13186,-3.15224 -1.9424,-4.31273c-0.44975,-0.62746 -1.1067,-1.3387 -1.97084,-2.1337c-2.16137,-1.96913 -4.49423,-3.53811 -6.99857,-4.70693c-1.21867,-0.5822 -2.45263,-1.06947 -3.70186,-1.4618c-3.1638,-1.03517 -6.09458,-1.47561 -8.79231,-1.32134z" fill="#00cc00"/><path d="M245.66338,144.17994c-0.41611,1.34493 -0.79253,2.81834 -1.12928,4.42022c-0.05668,0.27872 -0.15045,0.7947 -0.28134,1.54794l-1.09651,6.30991c-0.12021,0.72273 -0.21015,1.322 -0.26979,1.79779c-0.04336,0.36247 -0.09165,0.90728 -0.14488,1.63443l-0.05953,0.90386c-0.53277,-0.17009 -1.16278,-0.29834 -1.89003,-0.38475c-1.91071,-0.2219 -4.41902,-0.30423 -7.52493,-0.24697c-3.91657,0.06655 -6.44153,0.07354 -7.57489,0.02097c-1.00962,-0.04072 -2.52103,-0.15697 -4.53424,-0.34872l-6.1585,-0.52222c3.03782,-3.66707 6.41848,-6.96465 10.14199,-9.89276c0.42481,-0.32994 0.61313,-0.63857 0.56498,-0.92589c-0.02143,-0.22282 -0.19734,-0.44845 -0.52772,-0.67688c-1.41802,-0.99389 -2.50492,-1.71133 -3.26069,-2.15231c-1.25712,-0.73973 -2.43369,-1.26196 -3.52972,-1.56669c2.00145,-0.57658 4.21322,-1.03412 6.6353,-1.37262c1.87737,-0.27478 4.11468,-0.49262 6.71194,-0.65352c3.02647,-0.20272 5.46018,-0.20096 7.30115,0.00527c2.57333,0.29072 4.78223,0.99172 6.62669,2.10297M263.49584,150.40368c0.0742,-0.86291 0.1267,-1.63808 0.15747,-2.32551c0.00161,0.2255 -0.00058,0.41908 -0.00656,0.58077c-0.00001,0.17806 -0.00632,0.35478 -0.01892,0.53014c-0.03661,0.40472 -0.08061,0.80958 -0.132,1.2146M292.29231,152.26326c0.86415,0.795 1.52109,1.50624 1.97084,2.1337c0.81054,1.16049 1.458,2.59807 1.9424,4.31273c1.384,4.99551 1.18754,10.82967 -0.58938,17.50249c-0.65971,2.47323 -1.614,5.29236 -2.86286,8.45741c-0.19564,0.50373 -1.34001,3.26421 -3.43312,8.28143c-0.09681,0.23348 -0.1885,0.46545 -0.27506,0.69592c0.21789,-2.07798 0.16333,-4.21451 -0.16369,-6.40959c-0.41581,-2.78399 -1.22799,-5.48155 -2.43652,-8.0927c-1.97992,-4.2414 -5.18608,-8.46584 -9.61848,-12.67334c-2.2853,-2.16181 -4.33555,-3.76567 -6.15076,-4.81157c-2.28567,-1.29282 -4.52019,-1.98627 -6.70356,-2.08036c0.06465,-0.39973 0.12402,-0.80912 0.17812,-1.22816c0.13631,-1.01689 0.32072,-2.75942 0.55323,-5.22759c0.07024,-0.79245 0.11268,-1.38378 0.1273,-1.77398c0.01749,-0.40517 0.02277,-0.90115 0.01585,-1.48795c0.00038,-0.00953 -0.00237,-0.02079 -0.00824,-0.03376c0.01787,-0.30005 0.02462,-0.69999 0.02025,-1.19982c0.01762,-0.19224 0.03143,-0.38322 0.04143,-0.57294c0.02935,-0.56986 0.04478,-1.15927 0.04631,-1.76824c0.41961,-0.08997 0.93246,-0.21668 1.53857,-0.38015c2.61516,-0.67266 4.72004,-1.05053 6.31464,-1.13361c2.69774,-0.15428 5.62851,0.28617 8.79231,1.32134c1.24923,0.39233 2.48319,0.8796 3.70186,1.4618c2.50434,1.16882 4.8372,2.7378 6.99857,4.70693z" fill="#00ff99"/></g></g><g><g><path d="M249.18269,140.77525c0.30239,0.24873 0.34561,0.71838 0.12966,1.40898c-2.13636,7.40562 -3.36752,15.00929 -3.69346,22.81102c-0.01644,0.6078 -0.16816,0.9539 -0.45515,1.03831c-0.123,0.03617 -0.24811,0.0187 -0.37532,-0.05242c-0.12721,-0.07112 -0.22916,-0.17379 -0.30586,-0.308c-0.05821,-0.10347 -0.10792,-0.23959 -0.1491,-0.40837c-0.03222,-0.087 -0.07167,-0.22614 -0.11835,-0.41742c-0.08238,-0.33755 -0.22288,-0.68815 -0.42149,-1.05181c-0.10544,-0.16194 -0.19952,-0.25486 -0.28225,-0.27876c-0.08273,-0.0239 -0.18797,-0.00502 -0.31573,0.05668c-0.1585,0.07073 -0.25963,0.1065 -0.30338,0.10731c-0.23373,0.03256 -0.4068,-0.0914 -0.51919,-0.37188c-0.06169,-0.16275 -0.09749,-0.39944 -0.10739,-0.71006c-0.01179,-1.44364 0.14661,-3.5403 0.4752,-6.28998c0.32785,-2.7977 0.63185,-4.88291 0.91201,-6.25565c0.42636,-2.07899 1.28821,-5.05183 2.58554,-8.91851c0.07558,-0.27547 0.16901,-0.47781 0.28029,-0.60701c0.1563,-0.2148 0.33905,-0.2987 0.54826,-0.25169c0.21672,0.03274 0.37926,0.22612 0.48764,0.58014c0.06738,0.36608 0.13841,0.63461 0.21309,0.80559c0.21011,-0.39945 0.39779,-0.66569 0.56306,-0.79871c0.12702,-0.10971 0.27015,-0.17593 0.42939,-0.19864c0.15924,-0.02272 0.30008,0.01425 0.42254,0.11089M247.51629,143.39983c-0.02324,-0.00522 -0.05161,-0.00894 -0.08511,-0.01114c-0.2762,-0.05142 -0.48039,-0.19035 -0.61255,-0.41678c-1.05377,2.79413 -1.8693,5.93423 -2.4466,9.42031c-0.46733,2.76636 -0.82408,6.03081 -1.07025,9.79334c0.17022,0.02229 0.33295,0.05885 0.48816,0.10968c0.32892,0.13239 0.59781,0.37891 0.80667,0.73955c0.27344,-3.83085 0.72781,-7.528 1.36313,-11.09143l0.48637,-2.53078c0.45913,-2.12481 1.02185,-4.20773 1.68817,-6.24877c-0.16729,0.16979 -0.37329,0.24847 -0.61801,0.23602M256.93325,161.32395c-0.7305,3.39849 -1.88462,6.95171 -3.46237,10.65968c-1.26279,2.92796 -2.92741,6.25749 -4.99386,9.98859c-6.01524,10.77738 -12.82619,20.52255 -20.43284,29.23552c-1.12377,1.24701 -2.02159,2.20447 -2.69348,2.87238c-0.57562,0.56725 -1.39438,1.30851 -2.4563,2.22379c-9.73829,8.35104 -19.39553,14.17594 -28.97173,17.47472c-0.59924,0.20036 -1.0367,0.20843 -1.31236,0.02419c-0.22368,-0.15128 -0.40993,-0.46431 -0.55876,-0.93909c-0.31066,-0.95779 -0.48707,-1.97315 -0.52922,-3.04609c-0.01798,-0.83886 0.11432,-1.44456 0.39691,-1.81709c0.18156,-0.24635 0.5791,-0.50797 1.19262,-0.78488c0.44952,-0.22868 1.09744,-0.61219 1.94377,-1.15052l3.27667,-2.10329c1.19811,-0.76238 2.19945,-1.43072 3.00404,-2.00501c1.01086,-0.71937 2.11076,-1.59156 3.2997,-2.61655c0.63236,-0.55981 1.68091,-1.50734 3.14566,-2.84258c6.63194,-6.13505 11.63202,-10.92189 15.00023,-14.36053c5.38587,-5.47915 9.93603,-10.73663 13.65045,-15.77244c3.0162,-4.07072 5.46966,-7.99403 7.3604,-11.76993c2.20717,-4.45986 3.72402,-8.86744 4.55057,-13.22274c0.05635,-0.35423 0.1388,-0.60157 0.24733,-0.74203c0.08053,-0.12016 0.18092,-0.20395 0.30117,-0.25138c0.13325,-0.03919 0.25048,-0.03146 0.35171,0.02318c0.23594,0.1115 0.31969,0.45467 0.25127,1.02952c-0.07995,0.66266 -0.09154,1.33536 -0.03477,2.01809c0.05202,0.70826 0.22959,1.21075 0.53271,1.5075c0.43857,0.40162 1.06986,0.44508 1.89386,0.13038c0.80625,-0.29742 1.52995,-0.77556 2.17108,-1.43443c0.64388,-0.64762 1.13694,-1.3956 1.47917,-2.24392c0.18338,-0.46395 0.34095,-0.76353 0.47273,-0.89876c0.13452,-0.12398 0.28415,-0.18608 0.44888,-0.18629c0.19548,-0.00925 0.33807,0.05734 0.42776,0.19979c0.11569,0.15892 0.13135,0.42565 0.04699,0.80018M249.55931,166.15173c-0.49586,-0.27624 -0.79019,-0.67204 -0.88302,-1.18741c-2.60012,8.38616 -7.15863,16.71517 -13.67551,24.98705c-2.6185,3.31462 -5.71664,6.82456 -9.29441,10.52984c-2.32076,2.41908 -5.6218,5.70531 -9.90313,9.85869c-3.70096,3.56062 -6.6031,6.25319 -8.70644,8.07772c-3.31278,2.85555 -6.45078,5.18938 -9.41402,7.00151l-1.7255,1.03206c-0.68855,0.41957 -1.26098,0.77484 -1.71727,1.06581c-0.46105,0.31649 -0.78473,0.61066 -0.97105,0.88252c-0.36037,0.50394 -0.50356,1.15505 -0.42957,1.95332c0.03956,0.56721 0.19719,1.28058 0.47289,2.14012c4.3135,-1.54598 7.90346,-3.10829 10.76988,-4.68694c0.97005,-0.52649 2.38954,-1.37206 4.25845,-2.53674c3.71182,-2.34583 6.79264,-4.46387 9.24246,-6.35412c4.68111,-3.59564 8.91668,-7.71144 12.70672,-12.34742c0.68268,-0.80374 1.40388,-1.6972 2.16361,-2.68037c6.09281,-7.89391 11.49922,-16.23714 16.21923,-25.02971c1.39166,-2.57996 2.52526,-4.86696 3.40079,-6.86099c1.11968,-2.52408 1.99272,-4.93343 2.61913,-7.22803c-0.47861,0.5146 -1.03218,0.92462 -1.6607,1.23007c-0.63127,0.29419 -1.28388,0.45598 -1.95781,0.48536c-0.5632,0.03299 -1.0681,-0.0778 -1.51472,-0.33234M255.25211,144.30834c0.07724,0.0014 0.17059,0.0463 0.28005,0.1347c0.07322,0.07494 0.24226,0.27244 0.50713,0.5925c0.68588,0.91979 1.13837,1.5585 1.35749,1.91613c0.41973,0.68452 0.67033,1.08114 0.75178,1.18983c0.21911,0.35764 0.33141,0.5477 0.3369,0.57021c0.10691,0.25798 0.12696,0.47518 0.06016,0.65159c-0.01702,0.0653 -0.03678,0.11935 -0.0593,0.16215c-0.02178,0.09082 -0.06167,0.17491 -0.11969,0.25227c-0.00255,0.16958 -0.01773,0.35494 -0.04555,0.55606c-0.03806,0.20414 -0.15773,0.79406 -0.35902,1.76976c-0.15371,0.72053 -0.31601,1.72094 -0.4869,3.00124c-0.19193,1.41914 -0.34398,2.41654 -0.45615,2.9922c-0.04905,0.15914 -0.08995,0.26161 -0.12271,0.30742c-0.08657,0.23047 -0.28899,0.45883 -0.60727,0.68509c-0.64334,0.51481 -1.3339,0.97115 -2.07169,1.36903c-0.01775,0.01728 -0.31902,0.17824 -0.9038,0.48288c-0.35727,0.20155 -0.65442,0.37938 -0.89144,0.53351c-0.17351,0.09927 -0.29651,0.13544 -0.36899,0.10852c-0.02324,-0.00522 -0.04137,-0.01195 -0.05437,-0.02019c-0.06699,-0.00442 -0.13947,-0.03134 -0.21745,-0.08076c-0.18945,-0.10106 -0.3951,-0.33602 -0.61695,-0.70491l-1.447,-2.21541c-0.18341,-0.21136 -0.34157,-0.45426 -0.47446,-0.72872c-0.02398,-0.05324 -0.04796,-0.10649 -0.07194,-0.15973c-0.04448,-0.04721 -0.07633,-0.11021 -0.09555,-0.18897c-0.04046,-0.12075 -0.04467,-0.22804 -0.01264,-0.32188c-0.11971,-0.08538 -0.1729,-0.28078 -0.15955,-0.58619c0.06785,-1.11735 0.15749,-1.98786 0.26893,-2.61154l0.89674,-4.22521c0.07008,-0.29798 0.1474,-0.54381 0.23196,-0.73751c0.0873,-0.18245 0.24049,-0.4325 0.45956,-0.75018c-0.01849,-0.03074 -0.0281,-0.07012 -0.02883,-0.11814c-0.01996,-0.12678 0.04208,-0.27768 0.18612,-0.4527c0.33859,-0.41312 0.60041,-0.71322 0.78544,-0.90029c0.12153,-0.13222 0.30931,-0.30804 0.56335,-0.52746c0.60984,-0.51702 1.14017,-0.93226 1.59096,-1.24573c0.4378,-0.32171 0.81832,-0.51804 1.14156,-0.58898c0.06827,-0.08037 0.15265,-0.11725 0.25313,-0.11062M255.33854,148.44336l0.57634,1.07863c0.06571,0.08921 0.1198,0.1758 0.16227,0.25979c0.01574,0.01949 0.02773,0.04611 0.03597,0.07986c0.2308,-0.22465 0.41108,-0.3862 0.54084,-0.48466c0.16528,-0.13302 0.35142,-0.24807 0.55842,-0.34512l-2.06453,-3.46281l-0.10681,-0.16756c-0.14678,0.16376 -0.34482,0.3426 -0.5941,0.53651l-1.91986,1.451c-0.08126,0.07214 -0.24242,0.22204 -0.48347,0.4497c-0.12427,0.12097 -0.23729,0.22053 -0.33906,0.2987c0.18213,0.29615 0.3489,0.59683 0.50028,0.90202c0.11878,-0.14347 0.25431,-0.28584 0.40659,-0.4271c0.37008,-0.37414 0.78702,-0.71383 1.25081,-1.01907c0.08401,-0.06089 0.16701,-0.10339 0.24901,-0.1275c0.1025,-0.03014 0.2481,-0.0187 0.43681,0.03433c0.02801,-0.0203 0.05363,-0.02783 0.07687,-0.02261c0.13124,-0.00242 0.25095,0.08296 0.35913,0.25615c0.06571,0.08921 0.18388,0.32579 0.35449,0.70975M254.14013,148.59684c-0.35855,0.28634 -0.87423,0.64904 -1.54704,1.0881c0.03315,0.31585 0.02576,0.75819 -0.02217,1.32701c-0.02031,0.18686 -0.03925,0.37935 -0.05681,0.57746c-0.13082,1.03939 -0.28598,2.00153 -0.46549,2.88641c-0.10668,0.59816 -0.22956,1.0624 -0.36865,1.39273c-0.01977,0.05405 -0.04465,0.1096 -0.07467,0.16667c0.00549,0.02251 0.00723,0.05214 0.00522,0.08891c-0.00201,0.03677 -0.00403,0.07354 -0.00604,0.11031l0.09033,0.10006c0.05748,0.05545 0.13143,0.17841 0.22186,0.36889l0.59804,1.23504c0.06076,-0.06611 0.13178,-0.13523 0.21304,-0.20736c0.28204,-0.23972 0.63309,-0.5118 1.05314,-0.81622l0.24078,-0.16126c0.14825,-0.06772 0.29587,-0.09305 0.44285,-0.07598c-0.01996,-0.12678 -0.02766,-0.29335 -0.02309,-0.4997l0.02553,-0.09795l0.07107,-0.65401c0.17858,-1.11374 0.345,-2.09727 0.49926,-2.95061c0.10393,-0.60941 0.20247,-1.15091 0.29561,-1.6245c0.02104,-0.13884 0.05132,-0.26231 0.09086,-0.37041c-0.013,-0.00824 -0.02087,-0.01798 -0.02361,-0.02923c-0.1457,-0.10186 -0.31923,-0.34025 -0.52058,-0.71516c-0.17262,-0.34719 -0.29664,-0.63028 -0.37206,-0.84928c-0.05968,-0.19952 -0.10462,-0.36115 -0.13483,-0.48492c-0.05601,0.04059 -0.11439,0.09394 -0.17516,0.16005c-0.0205,0.00603 -0.03962,0.01768 -0.05738,0.03496M256.10522,151.1121c-0.27683,1.92649 -0.62075,3.75814 -1.03175,5.49496c0.07248,0.02692 0.17745,0.07443 0.31492,0.14254c0.39537,0.26962 0.707,0.53371 0.93489,0.79229c0.00275,0.01125 0.01061,0.021 0.02361,0.02923c0.11465,-2.09585 0.37601,-4.10823 0.78408,-6.03713c0.10138,-0.43983 0.20212,-0.83727 0.30222,-1.19231c-0.08676,0.04963 -0.22952,0.13986 -0.42829,0.27067c-0.19877,0.13082 -0.36853,0.22295 -0.50928,0.2764c-0.13325,0.03919 -0.25149,0.04984 -0.35472,0.03197c-0.00951,0.05104 -0.02141,0.11483 -0.03568,0.19138M253.85288,158.08754l-0.95074,0.69566c-0.14203,0.13825 -0.25267,0.22505 -0.33192,0.26042c-0.16875,0.07375 -0.30173,0.04653 -0.39893,-0.08165c-0.00275,-0.01125 -0.00549,-0.0225 -0.00824,-0.03375c-0.04649,-0.01044 -0.08786,-0.0224 -0.1241,-0.03586c-0.07248,-0.02692 -0.13609,-0.06248 -0.19082,-0.10668l-0.13042,-0.1968l-0.21582,-0.47919l-0.06481,-0.19801l-0.03817,-0.22393l-0.17382,-0.50963c-0.03643,-0.19429 -0.06188,-0.34357 -0.07635,-0.44786l-1.0018,0.89157c0.50997,0.69416 0.86014,1.20619 1.05051,1.5361l0.87536,1.69615c0.22731,-0.28392 0.53599,-0.54956 0.92602,-0.79692c0.48228,-0.27449 0.83818,-0.48167 1.0677,-0.62153c0.36477,-0.21581 0.75719,-0.47594 1.17724,-0.78036l0.25615,-0.16578c-0.06022,-0.06671 -0.13106,-0.15441 -0.21252,-0.2631c-0.09171,-0.10568 -0.23576,-0.26832 -0.43217,-0.48792c-0.11019,-0.13642 -0.18689,-0.27063 -0.23009,-0.40264c-0.06552,0.09162 -0.13754,0.17913 -0.21606,0.26252c-0.15704,0.16678 -0.34244,0.32984 -0.55622,0.48919M251.08109,149.02621c-0.02963,0.41873 -0.08964,0.87051 -0.18004,1.35535c-0.0591,0.34298 -0.21794,1.06502 -0.47651,2.1661c-0.31365,1.37053 -0.59043,2.71212 -0.83032,4.02478l0.50296,-0.43735c0.17552,-0.13604 0.31179,-0.23038 0.40879,-0.28303c0.06625,-0.04361 0.13901,-0.08309 0.21826,-0.11846c0.01427,-0.07655 0.03742,-0.16175 0.06945,-0.25558c0.1131,-0.3468 0.26379,-1.01218 0.45208,-1.99612c0.21208,-1.11153 0.44027,-2.17956 0.68457,-3.20409c-0.04924,-0.0217 -0.10122,-0.05465 -0.15595,-0.09885c-0.11696,-0.07413 -0.23503,-0.2203 -0.3542,-0.4385c-0.11642,-0.20694 -0.22946,-0.44503 -0.33911,-0.71427M258.17666,134.07817c0.32581,3.63049 0.91097,7.22088 1.75549,10.77117c0.09685,0.44183 0.07838,0.74874 -0.05541,0.92074c-0.08328,0.10891 -0.2059,0.16909 -0.36789,0.18055c-0.14148,0.00544 -0.27583,-0.02741 -0.40305,-0.09853c-0.1662,-0.09583 -0.35748,-0.31694 -0.57385,-0.66332c-1.41113,-2.22596 -2.49425,-4.21073 -3.24936,-5.9543c-0.63545,0.86221 -1.17838,1.63088 -1.62879,2.30601c-0.57395,0.84412 -0.96571,1.3995 -1.17527,1.66614c-0.46689,0.60763 -0.93461,1.07681 -1.40316,1.40757c-0.23977,0.14287 -0.4239,0.22114 -0.55239,0.23481c-0.24124,0.04683 -0.41869,-0.0276 -0.53237,-0.2233c-0.12118,-0.18143 -0.11835,-0.41741 0.00848,-0.70796c0.08529,-0.14567 0.23033,-0.33908 0.43514,-0.5802c0.15905,-0.20355 0.319,-0.51589 0.47987,-0.93704c1.29555,-2.97377 2.31886,-5.4876 3.06992,-7.5415c1.00252,-2.77905 1.75539,-5.38821 2.25861,-7.82747c0.05984,-0.29496 0.12865,-0.50815 0.20643,-0.63956c0.14331,-0.22304 0.30894,-0.33205 0.49692,-0.32704c0.33221,0.01083 0.55058,0.32044 0.65513,0.92883c0.12176,0.72393 0.2146,1.57694 0.27853,2.55906c0.06138,1.1517 0.10672,2.01265 0.13604,2.58288l0.16099,1.94243M256.74412,130.03153c-0.94648,3.41377 -2.12414,6.69053 -3.53298,9.83026c0.39533,-0.40569 0.73557,-0.87959 1.02071,-1.42171c0.16032,-0.28833 0.291,-0.4956 0.39203,-0.62178c0.1693,-0.20656 0.34656,-0.31296 0.53179,-0.3192c0.10799,-0.00764 0.21772,0.01435 0.32919,0.06598c0.09848,0.04339 0.19219,0.11231 0.28115,0.20673c0.1047,0.11392 0.23137,0.31785 0.38001,0.61179l1.98302,3.93901c-0.50915,-2.49123 -0.89431,-5.37468 -1.15549,-8.65034c-0.08737,-1.16817 -0.16384,-2.38175 -0.22944,-3.64074M264.57079,141.16971c0.32745,0.03635 0.53082,0.37449 0.6101,1.01443c0.19756,1.30459 0.31284,2.36205 0.34582,3.17238c0.03921,0.88085 -0.01123,2.29456 -0.15133,4.24113l-0.60226,7.32224c-0.17615,2.11394 -0.3754,3.72818 -0.59773,4.84273c-0.09314,0.47359 -0.16112,0.82521 -0.20394,1.05487c-0.07338,0.41953 -0.11811,0.77638 -0.1342,1.07054c-0.01791,0.51176 -0.11463,0.83565 -0.29015,0.97169c-0.11201,0.08118 -0.24013,0.11886 -0.38437,0.11304c-0.13673,-0.02009 -0.26495,-0.07282 -0.38466,-0.1582c-0.15669,-0.14687 -0.31996,-0.38827 -0.48984,-0.7242c-0.42267,-0.87661 -0.74376,-1.67456 -0.96325,-2.39386c-0.20353,0.15633 -0.39084,0.44658 -0.56196,0.87074c-0.18612,0.4527 -0.3772,0.75007 -0.57322,0.89214c-0.14002,0.10148 -0.30026,0.14258 -0.48073,0.1233c-0.18047,-0.01928 -0.3118,-0.10727 -0.394,-0.26399c-0.06645,-0.13723 -0.08138,-0.35593 -0.04479,-0.65612c0.70719,-4.75433 1.30363,-9.51227 1.78935,-14.27381c0.20234,-1.91663 0.33285,-3.56493 0.39153,-4.94488c0.0084,-0.46072 0.06338,-0.82058 0.16495,-1.07958c0.06954,-0.16517 0.17295,-0.30411 0.31022,-0.41684c0.14752,-0.11574 0.29852,-0.17221 0.453,-0.16941c0.24472,0.01244 0.4619,0.15961 0.65154,0.4415c0.07395,0.12296 0.1976,0.38204 0.37096,0.77725c0.11677,-0.1067 0.21468,-0.26815 0.29375,-0.48435c0.04703,-0.12236 0.09946,-0.31265 0.15729,-0.57084c0.05581,-0.22142 0.14311,-0.40387 0.26189,-0.54733c0.13379,-0.172 0.2858,-0.24686 0.45602,-0.22456M262.87016,145.34192c-0.14295,-0.09061 -0.25041,-0.21578 -0.32235,-0.37551c-0.11441,-0.24372 -0.17254,-0.59443 -0.17439,-1.05213c-0.3493,5.77058 -0.95266,11.42293 -1.81007,16.95706c0.0895,-0.03838 0.26466,-0.19843 0.52547,-0.48014c0.20004,-0.2156 0.38006,-0.31075 0.54003,-0.28545c0.0335,0.00221 0.07486,0.01416 0.1241,0.03586c0.16346,0.08458 0.30449,0.30237 0.42312,0.65338l0.68181,1.91588c0.31605,-1.04563 0.56325,-2.55339 0.74161,-4.52326c0.15074,-1.58792 0.37939,-4.47703 0.68593,-8.66733c0.09237,-1.19691 0.1454,-2.1049 0.1591,-2.72395c0.01532,-1.01749 -0.03588,-1.92496 -0.15361,-2.72242c-0.05802,0.07736 -0.19547,0.34691 -0.41234,0.80865c-0.16233,0.32511 -0.34225,0.51067 -0.53974,0.5567c-0.03075,0.00904 -0.05638,0.01658 -0.07688,0.02261c-0.13124,0.00242 -0.26183,-0.03756 -0.39179,-0.11993z" fill="#000000"/><path d="M247.51629,143.39983c-0.29373,0.822 -0.59513,1.81509 -0.90422,2.97927c-0.4575,1.72637 -0.97043,4.03584 -1.53878,6.92838c-0.65875,3.37739 -1.03752,5.53886 -1.13631,6.48442c-0.06548,0.76693 -0.11661,1.54773 -0.15335,2.34239c0.00348,0.05927 0.00559,0.11292 0.00633,0.16094c-0.15521,-0.05083 -0.31794,-0.08738 -0.48816,-0.10968c0.24617,-3.76253 0.60292,-7.02698 1.07025,-9.79334c0.5773,-3.48608 1.39283,-6.62618 2.4466,-9.42031c0.13216,0.22644 0.33635,0.36536 0.61255,0.41678c0.0335,0.00221 0.06187,0.00592 0.08511,0.01114M256.97355,133.67227c-0.14439,0.48866 -0.31541,1.00324 -0.51306,1.54374c-0.3975,0.93694 -0.72271,1.71996 -0.97564,2.34907c-0.11147,-0.05163 -0.2212,-0.07362 -0.32919,-0.06598c-0.18523,0.00624 -0.36249,0.11264 -0.53179,0.3192c-0.10103,0.12619 -0.2317,0.33345 -0.39203,0.62178c-0.28514,0.54211 -0.62538,1.01601 -1.02071,1.42171c1.40884,-3.13974 2.5865,-6.41649 3.53298,-9.83026c0.06559,1.25899 0.14207,2.47257 0.22944,3.64074M262.87016,145.34192c0.12996,0.08237 0.26055,0.12235 0.39179,0.11993c0.0775,1.53285 0.0259,3.45942 -0.15482,5.77971c-0.26102,3.29659 -0.71241,6.26327 -1.35418,8.90005c-0.04924,-0.0217 -0.0906,-0.03365 -0.1241,-0.03586c-0.15997,-0.02531 -0.33998,0.06984 -0.54003,0.28545c-0.26081,0.28171 -0.43597,0.44176 -0.52547,0.48014c0.85742,-5.53413 1.46077,-11.18648 1.81007,-16.95706c0.00185,0.4577 0.05998,0.80842 0.17439,1.05213c0.07194,0.15973 0.17939,0.2849 0.32235,0.37551z" fill="#928686"/><path d="M248.1343,143.16381c-0.66632,2.04103 -1.22905,4.12396 -1.68817,6.24877l-0.48637,2.53078c-0.63531,3.56344 -1.08969,7.26059 -1.36313,11.09143c-0.20886,-0.36065 -0.47775,-0.60717 -0.80667,-0.73955c-0.00073,-0.04802 -0.00284,-0.10167 -0.00633,-0.16094c0.03675,-0.79466 0.08787,-1.57546 0.15335,-2.34239c0.09879,-0.94556 0.47756,-3.10703 1.13631,-6.48442c0.56836,-2.89255 1.08128,-5.20201 1.53878,-6.92838c0.30909,-1.16418 0.61049,-2.15727 0.90422,-2.97927c0.24472,0.01244 0.45072,-0.06623 0.61801,-0.23602M256.14602,138.38361c-0.14864,-0.29394 -0.27531,-0.49787 -0.38001,-0.61179c-0.08896,-0.09443 -0.18267,-0.16334 -0.28115,-0.20673c0.25292,-0.62911 0.57813,-1.41213 0.97564,-2.34907c0.19765,-0.5405 0.36867,-1.05508 0.51306,-1.54374c0.26118,3.27566 0.64634,6.15911 1.15549,8.65034l-1.98302,-3.93901M263.87856,144.88255c0.21687,-0.46174 0.35432,-0.73129 0.41234,-0.80865c0.11773,0.79746 0.16894,1.70494 0.15361,2.72242c-0.0137,0.61905 -0.06673,1.52704 -0.1591,2.72395c-0.30655,4.19031 -0.5352,7.07942 -0.68593,8.66733c-0.17836,1.96988 -0.42556,3.47763 -0.74161,4.52326l-0.68181,-1.91588c-0.11863,-0.35101 -0.25966,-0.5688 -0.42312,-0.65338c0.64177,-2.63678 1.09316,-5.60346 1.35418,-8.90005c0.18072,-2.32029 0.23232,-4.24686 0.15482,-5.77971c0.0205,-0.00603 0.04613,-0.01356 0.07688,-0.02261c0.19749,-0.04603 0.3774,-0.23159 0.53974,-0.5567z" fill="#cccccc"/><path d="M253.03183,165.99871c0.62852,-0.30545 1.18209,-0.71547 1.6607,-1.23007c-0.62641,2.2946 -1.49945,4.70395 -2.61913,7.22803c-0.87553,1.99403 -2.00913,4.28103 -3.40079,6.86099c-4.72001,8.79256 -10.12642,17.13579 -16.21923,25.02971c-0.75973,0.98317 -1.48093,1.87663 -2.16361,2.68037c-3.79004,4.63597 -8.02561,8.75178 -12.70672,12.34742c-2.44982,1.89025 -5.53064,4.00829 -9.24246,6.35412c-1.86891,1.16468 -3.28839,2.01025 -4.25845,2.53674c-2.86642,1.57864 -6.45638,3.14096 -10.76988,4.68694c-0.27569,-0.85954 -0.43332,-1.57291 -0.47289,-2.14012c-0.07399,-0.79827 0.0692,-1.44938 0.42957,-1.95332c0.18631,-0.27186 0.51,-0.56604 0.97105,-0.88252c0.45629,-0.29097 1.02871,-0.64623 1.71727,-1.06581l1.7255,-1.03206c2.96324,-1.81212 6.10125,-4.14596 9.41402,-7.00151c2.10334,-1.82453 5.00549,-4.5171 8.70644,-8.07772c4.28133,-4.15338 7.58237,-7.43962 9.90313,-9.85869c3.57777,-3.70528 6.67591,-7.21522 9.29441,-10.52984c6.51689,-8.27188 11.07539,-16.60089 13.67551,-24.98705c0.09282,0.51537 0.38716,0.91117 0.88302,1.18741c0.44662,0.25454 0.95152,0.36533 1.51472,0.33234c0.67393,-0.02938 1.32653,-0.19116 1.95781,-0.48536z" fill="#924700"/><path d="M251.4202,149.74047c0.11917,0.2182 0.23723,0.36437 0.3542,0.4385c0.05473,0.0442 0.10672,0.07715 0.15595,0.09885c-0.2443,1.02453 -0.47249,2.09256 -0.68457,3.20409c-0.18829,0.98394 -0.33899,1.64931 -0.45208,1.99612c-0.03203,0.09383 -0.05518,0.17903 -0.06945,0.25558c-0.07925,0.03537 -0.15201,0.07485 -0.21826,0.11846c-0.09701,0.05265 -0.23327,0.14699 -0.40879,0.28303l-0.50296,0.43735c0.23989,-1.31266 0.51666,-2.65425 0.83032,-4.02478c0.25857,-1.10108 0.41741,-1.82312 0.47651,-2.1661c0.09039,-0.48484 0.1504,-0.93662 0.18004,-1.35535c0.10965,0.26923 0.22269,0.50732 0.33911,0.71427M254.62516,157.33584c0.0432,0.13201 0.1199,0.26622 0.23009,0.40264c0.19641,0.2196 0.34046,0.38224 0.43217,0.48792c0.08146,0.10869 0.15229,0.19639 0.21252,0.2631l-0.25615,0.16578c-0.42005,0.30443 -0.81247,0.56455 -1.17724,0.78036c-0.22952,0.13986 -0.58542,0.34704 -1.0677,0.62153c-0.39003,0.24736 -0.69871,0.513 -0.92602,0.79692l-0.87536,-1.69615c-0.19037,-0.32991 -0.54054,-0.84194 -1.05051,-1.5361l1.0018,-0.89157c0.01447,0.10428 0.03992,0.25356 0.07635,0.44786l0.17382,0.50963l0.03817,0.22393l0.06481,0.19801l0.21582,0.47919l0.13042,0.1968c0.05473,0.0442 0.11834,0.07976 0.19082,0.10668c0.03624,0.01346 0.07761,0.02542 0.1241,0.03586c0.00275,0.01125 0.00549,0.0225 0.00824,0.03375c0.0972,0.12818 0.23017,0.1554 0.39893,0.08165c0.07925,-0.03537 0.18989,-0.12217 0.33192,-0.26042l0.95074,-0.69566c0.21377,-0.15935 0.39918,-0.32241 0.55622,-0.48919c0.07852,-0.08339 0.15054,-0.1709 0.21606,-0.26252z" fill="#006600"/><path d="M256.1409,150.92071c0.10323,0.01787 0.22147,0.00722 0.35472,-0.03197c0.14075,-0.05345 0.31051,-0.14559 0.50928,-0.2764c0.19877,-0.13082 0.34153,-0.22104 0.42829,-0.27067c-0.1001,0.35504 -0.20084,0.75248 -0.30222,1.19231c-0.40807,1.92891 -0.66943,3.94128 -0.78408,6.03713c-0.013,-0.00824 -0.02087,-0.01798 -0.02361,-0.02923c-0.22789,-0.25858 -0.53952,-0.52267 -0.93489,-0.79229c-0.13746,-0.0681 -0.24243,-0.11562 -0.31492,-0.14254c0.41101,-1.73682 0.75492,-3.56847 1.03175,-5.49496c0.01427,-0.07655 0.02617,-0.14035 0.03568,-0.19138M254.62492,147.47746c-0.02324,-0.00522 -0.04887,0.00231 -0.07687,0.02261c-0.18871,-0.05303 -0.33431,-0.06448 -0.43681,-0.03433c-0.082,0.02411 -0.165,0.06662 -0.24901,0.1275c-0.46379,0.30524 -0.88073,0.64492 -1.25081,1.01907c-0.15228,0.14126 -0.28781,0.28363 -0.40659,0.4271c-0.15138,-0.3052 -0.31815,-0.60587 -0.50028,-0.90202c0.10176,-0.07817 0.21478,-0.17773 0.33906,-0.2987c0.24104,-0.22766 0.4022,-0.37756 0.48347,-0.4497l1.91986,-1.451c0.24928,-0.19391 0.44732,-0.37274 0.5941,-0.53651l0.10681,0.16756c0.33905,1.29916 0.51818,1.98812 0.5374,2.06688c0.14829,0.60759 0.27892,1.32287 0.39189,2.14585c-0.04247,-0.08399 -0.09656,-0.17058 -0.16227,-0.25979l-0.57634,-1.07863c-0.17061,-0.38396 -0.28877,-0.62054 -0.35449,-0.70975c-0.10818,-0.17319 -0.22789,-0.25858 -0.35913,-0.25615z" fill="#009900"/><path d="M254.46695,156.07997l-0.02553,0.09795c-0.00457,0.20635 0.00314,0.37291 0.02309,0.4997c-0.14698,-0.01707 -0.29459,0.00826 -0.44285,0.07598l-0.24078,0.16126c-0.42005,0.30443 -0.7711,0.5765 -1.05314,0.81622c-0.08126,0.07214 -0.15227,0.14126 -0.21304,0.20736l-0.59804,-1.23504c-0.09043,-0.19047 -0.16438,-0.31343 -0.22186,-0.36889l-0.09033,-0.10006c0.00201,-0.03677 0.00403,-0.07354 0.00604,-0.11031c0.00201,-0.03677 0.00027,-0.0664 -0.00522,-0.08891c0.03002,-0.05707 0.0549,-0.11262 0.07467,-0.16667c0.13909,-0.33033 0.26197,-0.79457 0.36865,-1.39273c0.17951,-0.88488 0.33468,-1.84702 0.46549,-2.88641c0.13437,0.3705 0.27285,0.75787 0.41546,1.16213c0.3469,0.97125 0.85936,2.08072 1.53739,3.32842z" fill="#007c17"/><path d="M254.37266,148.40183c0.03021,0.12377 0.07515,0.28541 0.13483,0.48492c0.07542,0.219 0.19944,0.5021 0.37206,0.84928c0.20136,0.37492 0.37488,0.6133 0.52058,0.71516c0.00275,0.01125 0.01061,0.021 0.02361,0.02923c-0.03953,0.1081 -0.06982,0.23157 -0.09086,0.37041c-0.09314,0.47359 -0.19168,1.01508 -0.29561,1.6245c-0.06923,-0.82378 -0.1931,-1.60136 -0.37159,-2.33271c-0.14005,-0.57383 -0.29612,-1.10074 -0.46819,-1.58074c0.06076,-0.06611 0.11915,-0.11946 0.17516,-0.16005M257.21238,149.03185c-0.20701,0.09706 -0.39315,0.2121 -0.55842,0.34512c-0.12977,0.09846 -0.31004,0.26001 -0.54084,0.48466c-0.00824,-0.03376 -0.02023,-0.06038 -0.03597,-0.07986c-0.11297,-0.82298 -0.2436,-1.53827 -0.39189,-2.14585c-0.01922,-0.07876 -0.19836,-0.76772 -0.5374,-2.06688z" fill="#00ff66"/><path d="M254.6657,150.14262c0.1785,0.73135 0.30236,1.50893 0.37159,2.33271c-0.15426,0.85334 -0.32068,1.83688 -0.49926,2.95061l-0.07107,0.65401c-0.67803,-1.2477 -1.19049,-2.35717 -1.53739,-3.32842c-0.14261,-0.40425 -0.28109,-0.79163 -0.41546,-1.16213c0.01756,-0.19811 0.0365,-0.3906 0.05681,-0.57746c0.04792,-0.56882 0.05532,-1.01116 0.02217,-1.32701c0.67281,-0.43906 1.1885,-0.80177 1.54704,-1.0881c0.01775,-0.01728 0.03688,-0.02893 0.05738,-0.03496c0.17208,0.48 0.32814,1.00691 0.46819,1.58074z" fill="#00cc00"/></g></g></g><g><path d="M265.33753,169.28667c0.10103,-0.12619 0.19831,-0.24524 0.29183,-0.35716c0.88802,-1.17768 1.52062,-2.4792 1.89778,-3.90459c0.16342,-0.59073 0.38112,-0.91403 0.65311,-0.96991c0.27473,-0.04462 0.49054,0.09692 0.64741,0.42461c0.08494,0.16797 0.14196,0.44665 0.17109,0.83604c0.12674,1.55455 0.19599,2.71599 0.20774,3.48432c0.03759,1.27929 -0.02202,2.43039 -0.17883,3.45331c-0.17711,1.20978 -0.4948,2.31619 -0.95307,3.31924c-0.51079,1.10291 -1.15988,1.99928 -1.94726,2.6891c1.25693,0.55889 2.45073,1.53431 3.58141,2.92624c0.72139,0.88523 1.62509,2.24745 2.71113,4.08665c0.31704,0.53384 0.41489,0.95728 0.29356,1.27033c-0.11585,0.33555 -0.4075,0.53589 -0.87496,0.60102c-0.40322,0.05829 -0.9084,0.01392 -1.51553,-0.13312c-0.85259,-0.2075 -1.35236,-0.31979 -1.49934,-0.33686c-0.43068,-0.05422 -1.10599,-0.03047 -2.02591,0.07125c-0.50096,0.06292 -0.93805,0.095 -1.31126,0.09622c0.96595,1.39215 1.68497,2.62779 2.15707,3.70693c0.79684,1.77954 1.30862,3.85396 1.53534,6.22325c0.18441,1.79083 0.21134,3.97166 0.08078,6.54251c-0.11098,2.33596 -0.34416,4.17122 -0.69955,5.50578c-0.49227,1.80896 -1.33469,3.44353 -2.52727,4.90373c-1.18233,1.45718 -2.56702,2.55783 -4.15407,3.30196c-1.04529,0.48831 -2.27251,0.86131 -3.68168,1.11898c-0.86245,0.15718 -2.14323,0.31077 -3.84233,0.46076l1.75843,3.89652c0.2528,0.54067 0.29629,0.94393 0.13047,1.20976c-0.14056,0.23429 -0.36944,0.33175 -0.68664,0.29239c-0.26046,-0.03193 -0.54014,-0.14262 -0.83905,-0.33208c-1.32357,-0.87696 -2.73318,-1.9939 -4.22882,-3.35086c-0.86415,-0.795 -2.16934,-2.06929 -3.91558,-3.82285l-1.94503,-1.9604c-0.01574,-0.01949 -0.03661,-0.03747 -0.0626,-0.05394c-0.84606,2.06978 -2.26667,4.10352 -4.26182,6.10124c-1.04946,1.05633 -2.02912,1.88108 -2.93895,2.47427c-0.77732,0.50598 -1.69686,0.96937 -2.75863,1.39017c-0.673,0.25823 -1.64225,0.5855 -2.90773,0.9818c-0.90948,0.27954 -1.62972,0.47931 -2.16069,0.59929c-0.81047,0.19012 -1.54617,0.30399 -2.2071,0.34161c-1.29112,0.06619 -3.00022,-0.18486 -5.12729,-0.75315c-1.61567,-0.45338 -2.9265,-0.91805 -3.93248,-1.39397c-0.94375,-0.44599 -1.94644,-1.04348 -3.00808,-1.79246c-2.76282,-1.91283 -4.94965,-4.03125 -6.56047,-6.35525c-1.16309,-1.65977 -2.01319,-3.38747 -2.5503,-5.1831c-0.22348,0.02955 -0.49373,0.11506 -0.81074,0.25653c-1.16353,0.49897 -2.07757,0.98486 -2.74215,1.45768c-0.94735,0.66452 -1.64477,1.43038 -2.09224,2.2976c-0.1951,0.37092 -0.32677,0.59657 -0.39504,0.67694c-0.2048,0.24112 -0.42856,0.33708 -0.67127,0.28787c-0.26119,-0.07995 -0.4652,-0.3757 -0.61202,-0.88725c-0.4844,-1.71466 -0.77896,-2.9666 -0.8837,-3.75583c-0.17176,-1.46895 -0.06512,-2.74242 0.31993,-3.8204c-0.86814,-0.04616 -1.85799,-0.14094 -2.96957,-0.28433c-1.01859,-0.1225 -1.82844,-0.31242 -2.42954,-0.56977c-0.99774,-0.44217 -2.06095,-1.37762 -3.18961,-2.80632c-0.22039,-0.27284 -0.35768,-0.49777 -0.41186,-0.67478c-0.10014,-0.32027 -0.07068,-0.58218 0.08837,-0.78572c0.11604,-0.15472 0.30017,-0.23299 0.55239,-0.23481c0.12373,0.01185 0.34182,0.05021 0.65426,0.11509c1.30725,0.31497 2.52817,0.11869 3.66277,-0.58884c0.29577,-0.18346 0.73495,-0.49954 1.31752,-0.94824c0.25478,-0.17141 0.50104,-0.31016 0.7388,-0.41626c-2.96944,-1.45411 -5.76804,-3.26597 -8.3958,-5.4356c-1.26702,-1.05036 -2.30945,-2.05823 -3.1273,-3.02362c-1.0095,-1.21051 -1.76476,-2.45961 -2.26579,-3.74731c-0.96435,-2.46589 -1.12704,-5.3605 -0.48805,-8.68384c0.4893,-2.67635 1.34331,-4.98362 2.56204,-6.92182c0.69328,-1.1204 1.60866,-2.27598 2.74616,-3.46673c4.96034,-5.19723 11.90904,-9.13418 20.84611,-11.81085c2.4702,-0.72649 4.59511,-1.22482 6.37474,-1.49498c4.10397,-0.60403 8.18858,-0.45469 12.25382,0.44801c0.62764,0.14101 0.93551,0.41224 0.92363,0.81369c-0.02159,0.27165 -0.24689,0.5188 -0.67591,0.74146c-1.81785,0.96877 -3.55231,2.25671 -5.20338,3.86381c-1.33425,1.2848 -1.91807,2.49359 -1.75145,3.6264c0.08807,0.54089 0.34937,1.04891 0.78392,1.52407c0.31685,0.353 0.76393,0.72197 1.34124,1.10691c2.05408,1.34948 4.23051,2.36754 6.52927,3.05416c-0.39889,-1.0042 -0.77151,-2.05833 -1.11786,-3.16239c-0.13162,-0.35924 -0.18801,-0.68032 -0.16917,-0.96322c0.04263,-0.41049 0.21256,-0.65945 0.5098,-0.74687c0.1435,-0.0422 0.3021,-0.02252 0.4758,0.05904c0.06223,0.02993 0.21681,0.12316 0.46373,0.27966c0.46309,0.32205 1.21227,0.6685 2.24753,1.03934c3.89486,1.37489 7.27676,2.44842 10.14568,3.2206c3.7065,1.00821 7.16251,1.71023 10.36801,2.10605c2.41387,0.30305 4.51923,0.37726 6.31607,0.22263c1.44963,-0.13692 2.67832,-0.41387 3.68609,-0.83085c1.39652,-0.57956 2.62317,-1.49504 3.67995,-2.74647M265.61399,179.53412c-0.46913,-0.21175 -0.75842,-0.36182 -0.86788,-0.45022c-0.32563,-0.25395 -0.46027,-0.55805 -0.40391,-0.91228c0.02781,-0.20112 0.13186,-0.38247 0.31214,-0.54402c0.07102,-0.06912 0.24141,-0.20365 0.51119,-0.40359c1.24514,-0.88475 2.0765,-2.3171 2.49408,-4.29703c0.15572,-0.75729 0.24161,-1.62067 0.25767,-2.59014c0.01919,-0.59655 0.00972,-1.46805 -0.02841,-2.61453c-0.81771,1.73584 -1.94678,3.14118 -3.3872,4.21601c-0.18577,0.13905 -0.37804,0.27398 -0.57681,0.4048c-1.48564,0.9796 -3.26251,1.59866 -5.3306,1.85718c-1.58763,0.20163 -3.48991,0.19431 -5.70684,-0.02195c-3.7687,-0.36284 -7.83211,-1.14549 -12.19022,-2.34795c-3.32158,-0.91641 -7.28233,-2.22369 -11.88226,-3.92182c0.48162,1.0281 0.7835,2.08495 0.90564,3.17054c0.37742,0.10607 0.6366,0.22279 0.77755,0.35016c0.1177,0.12216 0.19065,0.2635 0.21884,0.42404c0.03369,0.18304 0.00377,0.33052 -0.08975,0.44244c-0.09828,0.13744 -0.25029,0.21229 -0.45602,0.22456c-0.07724,-0.0014 -0.1661,-0.00541 -0.26659,-0.01204c-0.72464,-0.08836 -1.72805,-0.39622 -3.01023,-0.92356c-1.65759,-0.67018 -2.88579,-1.20135 -3.68457,-1.59351c-1.35413,-0.68708 -2.37303,-1.41849 -3.0567,-2.19421c-0.44553,-0.52017 -0.78106,-1.08474 -1.00659,-1.69373c-0.24951,-0.66223 -0.34179,-1.31041 -0.27685,-1.94453c0.08177,-0.88026 0.45988,-1.73913 1.13432,-2.57663c0.43688,-0.55056 1.12688,-1.21175 2.07002,-1.98356l3.0128,-2.44172c-2.63152,-0.56464 -5.4929,-0.67577 -8.58415,-0.33341c-0.25698,0.02734 -0.52284,0.06332 -0.79757,0.10795c-2.33258,0.30013 -4.90034,0.87442 -7.70329,1.7229c-8.83183,2.65778 -15.6168,6.61291 -20.35493,11.86537c-1.00773,1.09229 -1.78722,2.12951 -2.33847,3.11167c-0.49872,0.88229 -0.945,1.91196 -1.33883,3.089c-0.65754,1.94198 -1.01336,3.83743 -1.06744,5.68634c-0.06615,2.06953 0.26222,3.93258 0.98511,5.58916c0.74687,1.70982 2.08466,3.43277 4.01339,5.16884c1.2425,1.12992 2.68423,2.24346 4.32519,3.34061c1.23809,0.8418 2.77124,1.78977 4.59944,2.8439c0.29342,0.16695 0.48121,0.32879 0.5634,0.4855c0.0637,0.12597 0.08503,0.25838 0.064,0.39722c-0.01702,0.0653 -0.03678,0.11935 -0.0593,0.16215c-0.00476,0.02552 -0.00951,0.05104 -0.01427,0.07655c-0.08637,0.4113 -0.40447,0.81839 -0.95428,1.22128c-0.87761,0.68019 -1.66144,1.18205 -2.35146,1.50558c-0.91478,0.43787 -1.78062,0.62619 -2.5975,0.56496c0.46622,0.69497 1.18347,1.22567 2.15175,1.5921c0.55387,0.19888 1.41122,0.38086 2.57203,0.54595c0.56741,0.07431 0.9786,0.11617 1.23357,0.1256c0.45319,0.01142 0.85404,-0.03411 1.20253,-0.1366c0.46124,-0.13565 0.76984,-0.15405 0.92579,-0.05521c0.11696,0.07413 0.20766,0.1982 0.2721,0.3722c0.04869,0.15451 0.06014,0.31394 0.03434,0.4783c-0.01079,0.13583 -0.05471,0.29345 -0.13176,0.47289c-0.0818,0.20495 -0.14385,0.35584 -0.18612,0.45269c-0.60064,1.45493 -0.57712,3.32926 0.07058,5.62298c0.0432,0.13201 0.08778,0.26963 0.13373,0.41289c1.40067,-1.82287 3.28147,-3.05135 5.6424,-3.68541c0.17699,-0.04 0.33998,-0.06984 0.48897,-0.08954c-0.19296,-0.83563 -0.31793,-1.68524 -0.37489,-2.54881c-0.40376,0.19111 -0.75317,0.4024 -1.04821,0.63388c-0.32304,0.25178 -0.56904,0.32412 -0.73798,0.21704c-0.06498,-0.04118 -0.11733,-0.09814 -0.15705,-0.17087c-0.01373,-0.05626 -0.02371,-0.11965 -0.02994,-0.19017c-0.00495,-0.15531 0.02872,-0.30993 0.10101,-0.46384c0.19088,-0.47821 0.53872,-0.87597 1.04351,-1.19326c0.37228,-0.23008 0.86967,-0.44269 1.49216,-0.63783c3.03394,-0.89229 7.5794,-1.24027 13.63639,-1.04395c3.17785,0.10248 5.4807,0.13066 6.90855,0.08456c2.54948,-0.08655 4.81132,-0.38396 6.7855,-0.89223c2.16143,-0.55127 3.8205,-1.3829 4.97722,-2.49489c0.29906,-0.30502 0.5381,-0.49591 0.7171,-0.57268c0.0205,-0.00603 0.03587,-0.01055 0.04612,-0.01357c-0.15433,-0.49728 -0.31404,-0.92665 -0.47916,-1.2881c-0.09592,-0.21297 -0.15524,-0.38848 -0.17794,-0.52651c-0.02893,-0.20856 -0.00075,-0.38567 0.08453,-0.53135c0.08328,-0.10891 0.19941,-0.17321 0.3484,-0.19291c0.15174,-0.00845 0.28608,0.0244 0.40305,0.09853c0.17169,0.11833 0.34385,0.35109 0.51647,0.69828c0.36373,0.72511 0.69525,1.70088 0.99458,2.92731c0.22793,0.93389 0.40368,1.65399 0.52725,2.16031c0.13456,0.55133 0.20596,0.84387 0.2142,0.87763c0.36366,-0.6255 0.74068,-1.21876 1.13106,-1.77977c0.16106,-0.24032 0.29759,-0.40106 0.40961,-0.48224c0.09151,-0.07515 0.18477,-0.12067 0.27976,-0.13655c-0.14992,-0.20916 -0.29608,-0.42544 -0.43849,-0.64886c-0.19714,-0.26762 -0.29205,-0.49898 -0.28474,-0.69408c-0.00147,-0.09604 0.02031,-0.18686 0.06533,-0.27246c0.06753,-0.12839 0.17442,-0.20807 0.32066,-0.23902c0.14624,-0.03095 0.28297,-0.01087 0.41018,0.06025c0.15046,0.07634 0.353,0.27605 0.60761,0.59912c0.67288,0.91155 1.40516,1.75137 2.19682,2.51946c0.36334,0.36345 0.74444,0.70962 1.14329,1.03851c0.33387,0.28771 0.63589,0.51242 0.90605,0.67415c-0.18747,-0.81313 -0.56541,-2.04659 -1.13382,-3.70036c-0.09391,-0.24975 -0.1008,-0.61553 -0.02065,-1.09735c0.29037,-2.05106 0.70459,-3.6622 1.24265,-4.83342c0.30417,-0.64418 0.63919,-1.20699 1.00505,-1.68843c0.63893,-0.80294 1.37653,-1.38165 2.2128,-1.73613c0.77001,-0.31088 1.42619,-0.32298 1.96853,-0.03629c0.38914,0.19909 0.70874,0.56335 0.95879,1.09277c0.13015,0.2632 0.25253,0.60708 0.36713,1.03162c0.04595,0.14326 0.0909,0.3049 0.13483,0.48493c0.55746,2.28408 0.92856,4.16471 1.11332,5.6419c0.25581,2.08338 0.24621,3.9795 -0.02881,5.68838c-0.2322,1.47922 -0.65979,2.72046 -1.28279,3.72372c-0.74031,1.24277 -1.67896,2.05547 -2.81595,2.4381c-1.0495,0.38102 -2.21598,0.35025 -3.49944,-0.09231c-0.88755,-0.30575 -1.94149,-0.88817 -3.16183,-1.74725c-0.06127,0.87423 -0.22166,1.74746 -0.48116,2.61969c0.16693,0.14385 0.44507,0.40574 0.83441,0.78566c0.78343,0.73433 2.01266,1.92243 3.68769,3.56428c1.24122,1.21472 2.36501,2.24086 3.37138,3.07846c0.46383,0.37007 0.90267,0.70529 1.31653,1.00565c-0.36283,-1.17157 -0.8613,-2.29119 -1.49538,-3.35887c-0.19037,-0.32991 -0.30103,-0.58075 -0.33197,-0.75254c-0.06463,-0.35483 0.01269,-0.60066 0.23196,-0.73751c0.14276,-0.09022 0.32287,-0.09495 0.54032,-0.0142c0.11897,0.03737 0.30293,0.11592 0.55186,0.23565c0.29268,0.11893 0.76536,0.14271 1.41806,0.07134c1.44688,-0.14817 2.54243,-0.29552 3.28664,-0.44204c0.05125,-0.01507 0.10387,-0.02452 0.15786,-0.02834c1.13919,-0.23857 2.13681,-0.56212 2.99284,-0.97065c1.26455,-0.62516 2.38733,-1.51613 3.36834,-2.67291c0.9735,-1.14252 1.70145,-2.43591 2.18386,-3.88019c0.32301,-0.92709 0.55907,-1.98537 0.70818,-3.17486c0.11801,-0.8668 0.2016,-1.96465 0.25077,-3.29358c0.07749,-2.33817 0.01725,-4.34038 -0.18069,-6.00664c-0.24154,-2.15993 -0.73262,-4.05954 -1.47326,-5.69884c-0.40766,-0.90514 -0.9473,-1.85589 -1.6189,-2.85223c-0.46348,-0.68372 -1.11,-1.55479 -1.93957,-2.61321c-0.25736,-0.33432 -0.40838,-0.61551 -0.45306,-0.84356c-0.02069,-0.1748 0.00511,-0.33916 0.0774,-0.49307c0.07229,-0.15392 0.18156,-0.24634 0.3278,-0.27729c0.18724,-0.04301 0.40643,0.06738 0.65757,0.33118c0.48653,0.50811 1.02863,1.19886 1.62628,2.07224c0.16179,-0.19229 0.3472,-0.35536 0.55621,-0.48919c0.35654,-0.24957 0.76204,-0.41104 1.21651,-0.4844c0.56722,-0.10653 1.42374,-0.06298 2.56954,0.13064l1.69921,0.27808c-0.94362,-1.61578 -1.73678,-2.81756 -2.37945,-3.60535c-0.989,-1.21654 -2.0381,-2.07171 -3.14732,-2.56551M229.66415,205.75402c-1.48038,0.14596 -3.0261,0.22673 -4.63717,0.2423c-3.86277,-0.1181 -6.75828,-0.18906 -8.68655,-0.21284c-3.41909,-0.05565 -6.28009,0.19489 -8.583,0.75159c-0.54873,0.13726 -1.0496,0.2906 -1.5026,0.46001c0.06645,0.13723 0.12338,0.32549 0.1708,0.56479c0.0282,0.16054 0.05777,0.3267 0.08871,0.49849c0.41559,1.92785 1.12091,3.78254 2.11598,5.56408c1.02729,1.86854 2.30898,3.54166 3.84508,5.01937c2.87653,2.78383 6.40563,4.73057 10.58729,5.84022c1.37498,0.36741 2.55391,0.53922 3.5368,0.51545c1.08338,-0.01715 2.54755,-0.29703 4.39251,-0.83964c0.13325,-0.03919 0.26649,-0.07838 0.39974,-0.11757c0.97647,-0.27513 1.76159,-0.52412 2.35534,-0.74698c0.99825,-0.36595 1.87103,-0.77338 2.61834,-1.22229c1.15784,-0.7023 2.3724,-1.73483 3.64369,-3.09758c2.0237,-2.15083 3.29861,-4.28643 3.82473,-6.40682c0.07008,-0.29798 0.17036,-0.80984 0.30083,-1.53559c0.11619,-0.64919 0.22297,-1.15694 0.32032,-1.52323c0.08235,-0.33776 0.20991,-0.58028 0.38269,-0.72757c0.35379,-0.26082 0.85056,-0.09338 1.49029,0.50232c0.89838,0.84523 1.78759,1.42786 2.66764,1.74788c1.13575,0.37747 2.15589,0.34877 3.06042,-0.08608c0.69002,-0.32353 1.28513,-0.87842 1.78532,-1.66467c0.43742,-0.68337 0.76739,-1.49192 0.98991,-2.42563c0.43626,-1.76837 0.50827,-3.79138 0.21603,-6.06905c-0.18952,-1.45167 -0.62332,-3.47667 -1.30142,-6.07498c-0.13181,-0.54008 -0.31981,-0.88274 -0.56398,-1.028c-0.24143,-0.134 -0.55652,-0.11972 -0.94528,0.04285c-1.21477,0.51404 -2.14563,1.58372 -2.79257,3.20904c-0.24542,0.61484 -0.448,1.33769 -0.60775,2.16852c-0.09314,0.47359 -0.21162,1.22595 -0.35543,2.25711c-0.02104,0.13884 -0.05133,0.26231 -0.09086,0.37041c0.16183,0.48301 0.37409,1.15017 0.63679,2.00147c0.05419,0.17701 0.107,0.34839 0.15844,0.51415c0.02525,-0.03155 0.05052,-0.06309 0.07577,-0.09464l1.33204,-1.76651c0.68596,-0.9253 1.10178,-1.67468 1.24745,-2.24813c0.01628,-0.11332 0.05169,-0.2383 0.10623,-0.37493c0.06753,-0.12839 0.15255,-0.20767 0.25505,-0.23781c0.20024,-0.03477 0.34081,0.06859 0.42172,0.3101c0.04595,0.14326 0.04514,0.34248 -0.00244,0.59765c-0.0591,0.34298 -0.16909,0.72504 -0.32995,1.14619c-0.08931,0.21921 -0.25201,0.52031 -0.48811,0.90329l0.2768,0.93157c0.25465,0.99838 0.39491,2.0907 0.42078,3.27696c0.02491,0.2821 -0.00903,0.50312 -0.10183,0.66306c-0.06753,0.12839 -0.20105,0.23399 -0.40055,0.31679c-0.2405,0.09485 -0.44623,0.10712 -0.61719,0.03681c-0.08548,-0.03515 -0.20894,-0.11341 -0.37038,-0.23476c-0.10122,-0.05465 -0.1997,-0.09804 -0.29543,-0.13018c0.01447,0.10428 0.00843,0.21459 -0.0181,0.33092c-0.03678,0.11935 -0.10468,0.22374 -0.2037,0.31315c-0.10176,0.07817 -0.20664,0.12107 -0.31463,0.12871c-0.15924,0.02272 -0.36232,-0.04418 -0.60924,-0.20069c-0.56358,-0.32868 -1.35643,-0.92156 -2.37853,-1.77864c-1.0276,-0.87959 -1.66422,-1.44002 -1.90987,-1.68132c-0.44681,-0.43538 -0.86425,-0.88542 -1.2523,-1.35014c-0.01501,0.02853 -0.03001,0.05707 -0.04502,0.0856c-0.71908,1.28476 -1.25486,2.3528 -1.60734,3.20414c-0.1691,0.38739 -0.30929,0.64569 -0.42057,0.7749c-0.23281,0.26142 -0.48256,0.3409 -0.74924,0.23844c-0.24619,-0.10848 -0.42081,-0.4189 -0.52389,-0.93125l-0.51629,-2.45296c-0.17099,-0.74562 -0.33713,-1.42635 -0.49842,-2.04217c-0.02801,0.0203 -0.05463,0.04622 -0.07989,0.07776c-1.22023,1.16685 -2.76509,2.06136 -4.63457,2.68354c-1.45473,0.47608 -3.21789,0.81374 -5.28946,1.01299M249.58314,205.26815c0.13015,0.2632 0.25481,0.50391 0.37398,0.7221l0.01537,-0.00452c0.33348,-0.07396 0.81515,0.0316 1.44498,0.31667c0.00654,-0.91843 -0.07065,-1.84237 -0.23159,-2.77184c-0.00549,-0.02251 -0.01098,-0.045 -0.01648,-0.06751l-0.44529,0.67363c-0.2921,0.42357 -0.52829,0.71613 -0.70857,0.87768c-0.13452,0.12398 -0.27866,0.20857 -0.43241,0.25379z" fill="#000000"/><path d="M249.95711,205.99025c-0.11917,-0.2182 -0.24383,-0.4589 -0.37398,-0.7221c0.15375,-0.04522 0.29788,-0.12981 0.43241,-0.25379c0.18028,-0.16155 0.41647,-0.45412 0.70857,-0.87768l0.44529,-0.67363c0.00549,0.02251 0.01098,0.045 0.01648,0.06751c0.16094,0.92947 0.23813,1.85342 0.23159,2.77184c-0.62984,-0.28507 -1.1115,-0.39063 -1.44498,-0.31667z" fill="#b07065"/><path d="M220.51192,210.18227c-2.01669,-0.25103 -3.61615,-0.5705 -4.79839,-0.95841c-1.55765,-0.53075 -3.55018,-0.88536 -5.9776,-1.06383l-3.20622,-0.10619l-0.01537,0.00452c-0.03094,-0.17179 -0.06051,-0.33795 -0.08871,-0.49849c-0.04742,-0.2393 -0.10435,-0.42756 -0.1708,-0.56479c0.453,-0.16941 0.95387,-0.32274 1.5026,-0.46001c2.30291,-0.55671 5.16392,-0.80724 8.583,-0.75159c1.92827,0.02379 4.82379,0.09474 8.68655,0.21284c1.61107,-0.01557 3.15679,-0.09634 4.63717,-0.2423c2.07157,-0.19924 3.83473,-0.53691 5.28946,-1.01299c1.86948,-0.62218 3.41434,-1.51669 4.63457,-2.68354c0.02525,-0.03155 0.05188,-0.05747 0.07989,-0.07776c0.16128,0.61582 0.32742,1.29654 0.49842,2.04217l0.51629,2.45296c0.10308,0.51235 0.2777,0.82277 0.52389,0.93125c0.26669,0.10245 0.51644,0.02297 0.74924,-0.23844c0.11128,-0.1292 0.25147,-0.3875 0.42057,-0.7749c0.35248,-0.85134 0.88826,-1.91938 1.60734,-3.20414c0.01501,-0.02853 0.03001,-0.05707 0.04502,-0.0856c0.38806,0.46472 0.80549,0.91476 1.2523,1.35014c0.24564,0.2413 0.88226,0.80173 1.90987,1.68132c1.02211,0.85708 1.81495,1.44996 2.37853,1.77864c0.24692,0.15651 0.45,0.2234 0.60924,0.20069c0.10799,-0.00764 0.21286,-0.05055 0.31463,-0.12871c0.09902,-0.08942 0.16692,-0.1938 0.2037,-0.31315c0.02653,-0.11634 0.03257,-0.22664 0.0181,-0.33092c0.09573,0.03214 0.1942,0.07554 0.29543,0.13018c0.16144,0.12135 0.28491,0.1996 0.37038,0.23476c0.17096,0.07031 0.37669,0.05804 0.61719,-0.03681c0.1995,-0.08279 0.33302,-0.18839 0.40055,-0.31679c0.09279,-0.15994 0.12673,-0.38096 0.10183,-0.66306c-0.02587,-1.18626 -0.16613,-2.27858 -0.42078,-3.27696l-0.2768,-0.93157c0.2361,-0.38298 0.3988,-0.68408 0.48811,-0.90329c0.16087,-0.42115 0.27085,-0.80321 0.32995,-1.14619c0.04758,-0.25518 0.04839,-0.45439 0.00244,-0.59765c-0.08091,-0.24151 -0.22149,-0.34487 -0.42172,-0.3101c-0.1025,0.03014 -0.18751,0.10942 -0.25505,0.23781c-0.05454,0.13663 -0.08995,0.26161 -0.10623,0.37493c-0.14567,0.57345 -0.56148,1.32282 -1.24745,2.24813l-1.33204,1.76651c-0.02525,0.03155 -0.05052,0.06309 -0.07577,0.09464c-0.05144,-0.16576 -0.10425,-0.33714 -0.15844,-0.51415c-0.2627,-0.8513 -0.47496,-1.51846 -0.63679,-2.00147c0.03953,-0.1081 0.06982,-0.23157 0.09086,-0.37041c0.14381,-1.03115 0.26229,-1.78352 0.35543,-2.25711c0.15974,-0.83083 0.36233,-1.55368 0.60775,-2.16852c0.64694,-1.62532 1.5778,-2.695 2.79257,-3.20904c0.38875,-0.16257 0.70385,-0.17686 0.94528,-0.04285c0.24418,0.14526 0.43217,0.48792 0.56398,1.028c0.6781,2.59832 1.1119,4.62331 1.30142,6.07498c0.29224,2.27767 0.22023,4.30068 -0.21603,6.06905c-0.22252,0.93371 -0.55249,1.74226 -0.98991,2.42563c-0.50019,0.78625 -1.0953,1.34114 -1.78532,1.66467c-0.90453,0.43486 -1.92467,0.46355 -3.06042,0.08608c-0.88005,-0.32002 -1.76926,-0.90265 -2.66764,-1.74788c-0.63974,-0.5957 -1.1365,-0.76314 -1.49029,-0.50232c-0.17278,0.14729 -0.30034,0.38981 -0.38269,0.72757c-0.09735,0.36629 -0.20413,0.87404 -0.32032,1.52323c-0.13046,0.72575 -0.23074,1.23761 -0.30083,1.53559c-0.52612,2.12039 -1.80103,4.256 -3.82473,6.40682c-1.27129,1.36275 -2.48585,2.39528 -3.64369,3.09758c-0.74731,0.44891 -1.62009,0.85634 -2.61834,1.22229c-0.59375,0.22286 -1.37886,0.47185 -2.35534,0.74698c0.80807,-0.51502 1.5249,-1.02129 2.15048,-1.51882c1.74425,-1.40538 3.77837,-3.71604 6.10238,-6.93198c1.35893,-1.85884 2.23797,-3.45595 2.6371,-4.79132c0.17166,-0.55697 0.24842,-1.00765 0.23028,-1.35203c-0.42864,0.58432 -2.35465,1.71755 -5.77804,3.3997c0.81299,-1.03501 1.37795,-2.29856 1.69489,-3.79065c0.18226,-0.87363 0.25452,-1.70285 0.21677,-2.48767c-0.1153,0.20274 -0.34848,0.44015 -0.69952,0.71222c-0.49381,0.3623 -0.90224,0.66933 -1.22528,0.92111c-0.71161,0.59518 -1.8054,1.10982 -3.28136,1.54391c-2.2037,0.64812 -4.83911,0.92275 -7.90623,0.82388c-1.65829,-0.04289 -3.33206,-0.17169 -5.0213,-0.38637z" fill="#dca088"/><path d="M215.71353,209.22386c1.18224,0.38791 2.7817,0.70738 4.79839,0.95841c1.68924,0.21468 3.363,0.34348 5.0213,0.38637c3.06712,0.09886 5.70253,-0.17576 7.90623,-0.82388c1.47597,-0.43409 2.56975,-0.94873 3.28136,-1.54391c0.32304,-0.25178 0.73147,-0.55881 1.22528,-0.92111c0.35104,-0.27207 0.58422,-0.50948 0.69952,-0.71222c0.03775,0.78481 -0.03451,1.61403 -0.21677,2.48767c-0.31694,1.49209 -0.8819,2.75563 -1.69489,3.79065c3.42339,-1.68215 5.3494,-2.81539 5.77804,-3.3997c0.01814,0.34438 -0.05862,0.79506 -0.23028,1.35203c-0.39913,1.33537 -1.27817,2.93248 -2.6371,4.79132c-2.32401,3.21595 -4.35813,5.52661 -6.10238,6.93198c-0.62558,0.49753 -1.34241,1.0038 -2.15048,1.51882c-0.13325,0.03919 -0.26649,0.07838 -0.39974,0.11757c-1.84496,0.54261 -3.30913,0.82249 -4.39251,0.83964c-0.9829,0.02377 -2.16183,-0.14805 -3.5368,-0.51545c-4.18166,-1.10965 -7.71076,-3.05639 -10.58729,-5.84022c-1.5361,-1.4777 -2.81779,-3.15083 -3.84508,-5.01937c-0.99507,-1.78154 -1.7004,-3.63623 -2.11598,-5.56408l0.01537,-0.00452l3.20622,0.10619c2.42741,0.17847 4.41995,0.53308 5.9776,1.06383z" fill="#fed0af"/><path d="M203.56757,208.00248c0.03972,0.07273 0.09207,0.12969 0.15705,0.17087c0.16894,0.10708 0.41494,0.03473 0.73798,-0.21704c0.29504,-0.23148 0.64445,-0.44278 1.04821,-0.63388c0.05697,0.86357 0.18193,1.71318 0.37489,2.54881c-0.14899,0.0197 -0.31198,0.04955 -0.48897,0.08954c-2.36093,0.63406 -4.24173,1.86254 -5.6424,3.68541c-0.04595,-0.14326 -0.09052,-0.28089 -0.13373,-0.41289c0.23277,-0.93673 0.96293,-2.08606 2.19047,-3.44801c0.6124,-0.6866 1.19789,-1.28087 1.75649,-1.78281M247.26925,200.64863c-0.08015,0.48182 -0.07326,0.8476 0.02065,1.09735c0.56841,1.65378 0.94635,2.88723 1.13382,3.70036c-0.27017,-0.16173 -0.57219,-0.38644 -0.90605,-0.67415c-0.39885,-0.32889 -0.77995,-0.67506 -1.14329,-1.03851c-0.02123,-0.04199 -0.04247,-0.08398 -0.0637,-0.12597c-0.34323,-0.73114 -0.59174,-1.41176 -0.74552,-2.04185c-0.41191,-1.68774 -0.02094,-3.30411 1.17291,-4.84909c0.62594,-0.81117 1.55223,-1.6745 2.77888,-2.58999c-0.36586,0.48144 -0.70088,1.04425 -1.00505,1.68843c-0.53806,1.17122 -0.95228,2.78237 -1.24265,4.83342M241.46237,203.9302c0.0075,-0.01427 0.01501,-0.02854 0.02251,-0.0428c0.30363,-0.51137 0.48023,-0.91303 0.52982,-1.20498c0.06111,-0.37975 0.04068,-0.95862 -0.06131,-1.73659c-0.06409,-0.48764 -0.13869,-0.90586 -0.22382,-1.25466c0.08567,0.21599 0.2582,0.47276 0.51757,0.77031c0.19641,0.2196 0.37195,0.42122 0.52662,0.60485c-0.00731,0.1951 0.0876,0.42646 0.28474,0.69408c0.14241,0.22342 0.28858,0.4397 0.43849,0.64886c-0.09499,0.01588 -0.18825,0.06139 -0.27976,0.13655c-0.11201,0.08118 -0.24855,0.24192 -0.40961,0.48224c-0.39038,0.56101 -0.7674,1.15426 -1.13106,1.77977c-0.00824,-0.03376 -0.07964,-0.3263 -0.2142,-0.87763M215.70507,156.93137c0.27473,-0.04462 0.54059,-0.0806 0.79757,-0.10795c3.09125,-0.34237 5.95264,-0.23123 8.58415,0.33341l-3.0128,2.44172c-0.94314,0.77181 -1.63314,1.43299 -2.07002,1.98356c-0.67444,0.8375 -1.05255,1.69637 -1.13432,2.57663c-0.06494,0.63413 0.02734,1.2823 0.27685,1.94453c0.22553,0.60899 0.56106,1.17356 1.00659,1.69373c0.68367,0.77573 1.70257,1.50713 3.0567,2.19421c0.79878,0.39216 2.02698,0.92333 3.68457,1.59351c1.28218,0.52735 2.28559,0.8352 3.01023,0.92356c0.10049,0.00662 0.18935,0.01063 0.26659,0.01204c0.84438,0.84906 2.08753,2.27424 3.72946,4.27555c-3.07005,-0.29095 -5.36047,-0.51574 -6.87124,-0.67438c-2.69135,-0.26967 -4.83562,-0.61584 -6.4328,-1.03848c-4.48935,-1.20004 -7.18988,-3.66783 -8.10158,-7.40337c-0.61513,-2.52036 -0.5402,-4.68895 0.22479,-6.50576c0.48206,-1.13063 1.47714,-2.5448 2.98526,-4.24251M257.25807,180.7435c0.79948,-0.23513 1.36249,-0.44895 1.68901,-0.64146c0.55329,-0.34362 0.7709,-0.75733 0.65282,-1.24115c-0.09062,-0.3713 -0.69868,-0.7472 -1.82418,-1.12768c-1.19176,-0.33688 -1.86661,-0.53635 -2.02457,-0.59843c1.62754,0.05194 3.6741,-0.85747 6.13966,-2.72824c1.12214,-0.84858 1.99243,-1.67131 2.61086,-2.46822c1.44043,-1.07483 2.56949,-2.48018 3.3872,-4.21601c0.03813,1.14648 0.0476,2.01798 0.02841,2.61453c-0.01606,0.96946 -0.10195,1.83284 -0.25767,2.59014c-0.41758,1.97994 -1.24895,3.41228 -2.49408,4.29703c-0.26978,0.19994 -0.44018,0.33447 -0.51119,0.40359c-0.18028,0.16155 -0.28433,0.3429 -0.31214,0.54402c-0.05635,0.35423 0.07828,0.65833 0.40391,0.91228c0.10946,0.0884 0.39875,0.23847 0.86788,0.45022c1.10921,0.49381 2.15832,1.34898 3.14732,2.56551c0.64268,0.78779 1.43583,1.98957 2.37945,3.60535l-1.69921,-0.27808c-1.1458,-0.19362 -2.00232,-0.23717 -2.56954,-0.13064c-0.45447,0.07336 -0.85998,0.23483 -1.21651,0.4844c-0.20902,0.13383 -0.39442,0.29689 -0.55621,0.48919c-0.59765,-0.87338 -1.13975,-1.56413 -1.62628,-2.07224c-0.25114,-0.2638 -0.47033,-0.37419 -0.65757,-0.33118c-0.14624,0.03095 -0.25551,0.12338 -0.3278,0.27729c-0.07229,0.15392 -0.09809,0.31827 -0.0774,0.49307c0.04467,0.22805 0.19569,0.50924 0.45306,0.84356c0.82957,1.05842 1.47609,1.92949 1.93957,2.61321c0.6716,0.99634 1.21124,1.94709 1.6189,2.85223c0.74064,1.6393 1.23173,3.53891 1.47326,5.69884c0.19795,1.66626 0.25818,3.66847 0.18069,6.00664c-0.04917,1.32892 -0.13276,2.42678 -0.25077,3.29358c-0.14911,1.18948 -0.38517,2.24777 -0.70818,3.17486c-0.48241,1.44428 -1.21036,2.73767 -2.18386,3.88019c-0.981,1.15678 -2.10378,2.04776 -3.36834,2.67291c-0.85603,0.40853 -1.85365,0.73209 -2.99284,0.97065c-0.054,0.00382 -0.10661,0.01327 -0.15786,0.02834c-0.74421,0.14652 -1.83976,0.29387 -3.28664,0.44204c-0.6527,0.07137 -1.12539,0.04759 -1.41806,-0.07134c-0.24893,-0.11973 -0.43289,-0.19828 -0.55186,-0.23565c-0.21745,-0.08076 -0.39755,-0.07603 -0.54032,0.0142c-0.21927,0.13684 -0.29659,0.38268 -0.23196,0.73751c0.03094,0.17179 0.1416,0.42263 0.33197,0.75254c0.63408,1.06768 1.13255,2.18729 1.49538,3.35887c-0.41386,-0.30036 -0.8527,-0.63557 -1.31653,-1.00565c-0.60392,-1.61921 -1.75381,-3.08991 -3.44969,-4.41209c-0.80245,-0.63226 -2.00558,-1.37581 -3.60937,-2.23064c-0.38933,-0.37993 -0.66747,-0.64181 -0.83441,-0.78566c0.2595,-0.87223 0.41989,-1.74546 0.48116,-2.61969c1.22034,0.85908 2.27428,1.44149 3.16183,1.74725c1.28346,0.44256 2.44994,0.47333 3.49944,0.09231c1.13699,-0.38263 2.07564,-1.19533 2.81595,-2.4381c0.623,-1.00326 1.05059,-2.24449 1.28279,-3.72372c0.27502,-1.70888 0.28462,-3.60501 0.02881,-5.68838c-0.18476,-1.47719 -0.55586,-3.35782 -1.11332,-5.6419c-0.04394,-0.18003 -0.08889,-0.34167 -0.13483,-0.48493c0.44728,-1.04805 0.74511,-2.19083 0.89349,-3.42833c0.19576,-1.67351 0.08494,-3.3654 -0.33247,-5.07564c-0.23891,-0.97889 -0.6043,-1.98088 -1.09617,-3.00597c-0.17811,-0.36969 -0.43905,-0.85371 -0.78282,-1.45204c-0.19366,-0.20835 -0.39107,-0.40956 -0.59224,-0.60364c0.10049,0.00662 0.20234,0.01887 0.30558,0.03675c1.63652,0.13371 2.91602,0.06492 3.8385,-0.20639z" fill="#2179ef"/><path d="M249.52447,217.58585c-1.67503,-1.64185 -2.90426,-2.82995 -3.68769,-3.56428c1.60379,0.85483 2.80692,1.59838 3.60937,2.23064c1.69588,1.32218 2.84578,2.79288 3.44969,4.41209c-1.00637,-0.83759 -2.13016,-1.86374 -3.37138,-3.07846M258.94707,180.10204c-0.32652,0.1925 -0.88952,0.40633 -1.68901,0.64146c-0.92248,0.2713 -2.20198,0.3401 -3.8385,0.20639c-0.10323,-0.01787 -0.20509,-0.03013 -0.30558,-0.03675c0.20117,0.19408 0.39858,0.39529 0.59224,0.60364c0.34377,0.59833 0.60471,1.08235 0.78282,1.45204c0.49187,1.02509 0.85726,2.02708 1.09617,3.00597c0.41741,1.71025 0.52823,3.40213 0.33247,5.07564c-0.14838,1.2375 -0.44621,2.38028 -0.89349,3.42833c-0.1146,-0.42455 -0.23698,-0.76842 -0.36713,-1.03162c-0.25005,-0.52942 -0.56965,-0.89368 -0.95879,-1.09277c-0.54234,-0.28669 -1.19852,-0.27459 -1.96853,0.03629c-0.83627,0.35448 -1.57387,0.93319 -2.2128,1.73613c-1.22665,0.91549 -2.15294,1.77882 -2.77888,2.58999c-1.19386,1.54499 -1.58482,3.16135 -1.17291,4.84909c0.15378,0.63009 0.40229,1.31071 0.74552,2.04185c0.02123,0.04199 0.04247,0.08398 0.0637,0.12597c-0.79166,-0.76808 -1.52394,-1.6079 -2.19682,-2.51946c-0.25462,-0.32307 -0.45716,-0.52278 -0.60761,-0.59912c-0.12721,-0.07112 -0.26394,-0.0912 -0.41018,-0.06025c-0.14624,0.03095 -0.25313,0.11063 -0.32066,0.23902c-0.04502,0.0856 -0.0668,0.17642 -0.06533,0.27246c-0.15467,-0.18363 -0.33022,-0.38526 -0.52662,-0.60485c-0.25937,-0.29755 -0.4319,-0.55432 -0.51757,-0.77031c0.08513,0.3488 0.15974,0.76702 0.22382,1.25466c0.10199,0.77797 0.12243,1.35684 0.06131,1.73659c-0.04959,0.29195 -0.22619,0.6936 -0.52982,1.20498c-0.0075,0.01427 -0.01501,0.02854 -0.02251,0.0428c-0.12357,-0.50632 -0.29932,-1.22643 -0.52725,-2.16031c-0.29932,-1.22643 -0.63085,-2.2022 -0.99458,-2.92731c-0.17262,-0.34719 -0.34478,-0.57995 -0.51647,-0.69828c-0.11696,-0.07413 -0.25131,-0.10697 -0.40305,-0.09853c-0.14899,0.0197 -0.26512,0.084 -0.3484,0.19291c-0.08529,0.14567 -0.11347,0.32279 -0.08453,0.53135c0.0227,0.13803 0.08202,0.31354 0.17794,0.52651c0.16512,0.36145 0.32483,0.79082 0.47916,1.2881c-0.01025,0.00301 -0.02562,0.00754 -0.04612,0.01357c-0.17901,0.07676 -0.41804,0.26766 -0.7171,0.57268c-1.15672,1.11199 -2.81579,1.94362 -4.97722,2.49489c-1.97418,0.50826 -4.23602,0.80567 -6.7855,0.89223c-1.42785,0.0461 -3.7307,0.01791 -6.90855,-0.08456c-6.05699,-0.19633 -10.60245,0.15165 -13.63639,1.04395c-0.62249,0.19514 -1.11988,0.40775 -1.49216,0.63783c-0.50479,0.31729 -0.85263,0.71505 -1.04351,1.19326c-0.07229,0.15392 -0.10596,0.30853 -0.10101,0.46384c0.00623,0.07052 0.01621,0.13391 0.02994,0.19017c-0.5586,0.50194 -1.14409,1.09621 -1.75649,1.78281c-1.22754,1.36195 -1.9577,2.51128 -2.19047,3.44801c-0.64769,-2.29372 -0.67122,-4.16805 -0.07058,-5.62298c0.04228,-0.09685 0.10432,-0.24774 0.18612,-0.45269c0.07705,-0.17943 0.12097,-0.33706 0.13176,-0.47289c0.0258,-0.16436 0.01435,-0.32379 -0.03434,-0.4783c-0.06444,-0.174 -0.15514,-0.29806 -0.2721,-0.3722c-0.15595,-0.09885 -0.46455,-0.08044 -0.92579,0.05521c-0.34849,0.10249 -0.74934,0.14803 -1.20253,0.1366c-0.25497,-0.00943 -0.66615,-0.0513 -1.23357,-0.1256c-1.16081,-0.16509 -2.01816,-0.34707 -2.57203,-0.54595c-0.96827,-0.36643 -1.68552,-0.89713 -2.15175,-1.5921c0.81689,0.06123 1.68272,-0.12709 2.5975,-0.56496c0.69002,-0.32353 1.47384,-0.82539 2.35146,-1.50558c0.54981,-0.40289 0.86791,-0.80998 0.95428,-1.22128c0.00476,-0.02552 0.00951,-0.05104 0.01427,-0.07655c0.02251,-0.0428 0.04228,-0.09685 0.0593,-0.16215c0.02104,-0.13884 -0.00029,-0.27125 -0.064,-0.39722c-0.08219,-0.15672 -0.26999,-0.31855 -0.5634,-0.4855c-1.8282,-1.05414 -3.36135,-2.00211 -4.59944,-2.8439c-1.64096,-1.09715 -3.08269,-2.21069 -4.32519,-3.34061c-1.92872,-1.73607 -3.26652,-3.45902 -4.01339,-5.16884c-0.72289,-1.65658 -1.05126,-3.51963 -0.98511,-5.58916c0.05408,-1.84891 0.4099,-3.74436 1.06744,-5.68634c0.39383,-1.17704 0.84011,-2.20671 1.33883,-3.089c0.55125,-0.98215 1.33074,-2.01938 2.33847,-3.11167c4.73813,-5.25247 11.5231,-9.20759 20.35493,-11.86537c2.80295,-0.84848 5.37071,-1.42278 7.70329,-1.7229c-1.50812,1.6977 -2.5032,3.11188 -2.98526,4.24251c-0.76499,1.81681 -0.83992,3.9854 -0.22479,6.50576c0.91171,3.73554 3.61223,6.20333 8.10158,7.40337c1.59718,0.42265 3.74145,0.76881 6.4328,1.03848c1.51078,0.15864 3.80119,0.38343 6.87124,0.67438c-1.64192,-2.00131 -2.88508,-3.4265 -3.72946,-4.27555c0.20573,-0.01227 0.35774,-0.08712 0.45602,-0.22456c0.09352,-0.11192 0.12344,-0.2594 0.08975,-0.44244c-0.0282,-0.16054 -0.10114,-0.30188 -0.21884,-0.42404c-0.14094,-0.12738 -0.40012,-0.2441 -0.77755,-0.35016c-0.12214,-1.08559 -0.42402,-2.14244 -0.90564,-3.17054c4.59993,1.69813 8.56068,3.00541 11.88226,3.92182c4.35811,1.20247 8.42152,1.98512 12.19022,2.34795c2.21692,0.21626 4.11921,0.22357 5.70684,0.02195c2.0681,-0.25852 3.84496,-0.87757 5.3306,-1.85718c0.19877,-0.13082 0.39104,-0.26575 0.57681,-0.4048c-0.61843,0.79691 -1.48872,1.61964 -2.61086,2.46822c-2.46556,1.87076 -4.51211,2.78018 -6.13966,2.72824c0.15796,0.06208 0.83282,0.26155 2.02457,0.59843c1.1255,0.38048 1.73356,0.75637 1.82418,1.12768c0.11808,0.48382 -0.09953,0.89754 -0.65282,1.24115z" fill="#00b7ff"/></g><path d="M222.46802,211.78757c0.15917,0.97847 0.30773,2.07926 0.44568,3.30236c0.11673,0.90858 0.1804,1.65409 0.19101,2.23651c0,0.03267 0,0.06179 0,0.08737c0.25479,-0.04323 0.48294,-0.04905 0.68443,-0.01748c0.23345,0.04659 0.38201,0.12814 0.44568,0.24462c0.05306,0.09319 0.07959,0.19221 0.07959,0.29704c0,0.11648 -0.03714,0.2155 -0.11142,0.29704c-0.0955,0.09319 -0.25467,0.16308 -0.47751,0.20967c-0.87013,0.19803 -1.77739,0.69309 -2.72181,1.48519c-0.20162,0.15143 -0.34487,0.29704 -0.42976,0.43682c-0.13795,0.18638 -0.191,0.39023 -0.15917,0.61155c0.03183,0.15143 0.1008,0.30868 0.20692,0.47176c0.20162,0.32616 0.45098,0.66396 0.7481,1.01342c0.12734,0.16308 0.19101,0.29121 0.19101,0.3844c-0.31834,0.01165 -0.70565,-0.06407 -1.16194,-0.22715c-0.2759,-0.11648 -0.4722,-0.22132 -0.58893,-0.31451c-0.36079,-0.29121 -0.58363,-0.67561 -0.66852,-1.1532c-0.08489,-0.46594 -0.01591,-0.91441 0.20692,-1.3454c0.18039,-0.32616 0.45098,-0.63485 0.81177,-0.92606c0.33828,-0.27597 0.68845,-0.52059 1.05052,-0.73385c-0.0759,-0.13837 -0.15018,-0.30728 -0.22284,-0.50671c-0.0955,-0.33781 -0.17508,-0.58825 -0.23875,-0.75133c-0.16978,-0.45429 -0.2759,-0.76298 -0.31834,-0.92606c-0.03183,-0.11648 -0.07428,-0.41353 -0.12733,-0.89112l-0.06367,-0.89111c-0.01061,-0.66396 0.02653,-1.41529 0.11142,-2.25399c0.06367,-0.62902 0.21223,-1.06584 0.44568,-1.31046c0.16978,-0.15143 0.3714,-0.22715 0.60485,-0.22715c0.23345,0 0.43507,0.07571 0.60485,0.22715c0.20162,0.19803 0.35547,0.58825 0.46159,1.17067M232.67082,208.69489c0.20162,-0.05824 0.39262,-0.04077 0.57301,0.05242c0.28651,0.16308 0.50404,0.51836 0.6526,1.06584c0.14856,0.53583 0.27589,1.3687 0.38201,2.49861c0.22284,2.30641 0.30773,4.10028 0.25467,5.38161c0,0.33781 -0.04245,0.6232 -0.12734,0.85617c-0.11673,0.31451 -0.30242,0.50671 -0.5571,0.5766c-0.24406,0.05824 -0.47751,-0.01747 -0.70035,-0.22715c-0.14856,-0.12814 -0.29181,-0.34946 -0.42976,-0.66396c-0.45629,-0.95518 -0.73749,-2.09673 -0.8436,-3.42466c-0.06367,-0.7921 -0.06367,-1.98024 0,-3.56444c0.02122,-0.58243 0.04775,-1.02507 0.07959,-1.32793c0.02122,-0.3844 0.0955,-0.67562 0.22283,-0.87364c0.11673,-0.18638 0.2812,-0.30286 0.49343,-0.34945z" fill="#000000"/></g></g></g></svg>